<mxfile host="65bd71144e">
    <diagram id="KzVTg3qyr-KYsTTbNdZz" name="Page-1">
        <mxGraphModel dx="1289" dy="1139" grid="1" gridSize="10" guides="1" tooltips="1" connect="1" arrows="1" fold="1" page="1" pageScale="1" pageWidth="850" pageHeight="1100" math="0" shadow="0">
            <root>
                <mxCell id="0"/>
                <mxCell id="1" parent="0"/>
                <mxCell id="6" style="edgeStyle=none;html=1;exitX=0.5;exitY=1;exitDx=0;exitDy=0;entryX=0.5;entryY=0;entryDx=0;entryDy=0;fontSize=14;" parent="1" source="2" target="4" edge="1">
                    <mxGeometry relative="1" as="geometry"/>
                </mxCell>
                <mxCell id="2" value="Start" style="rounded=1;whiteSpace=wrap;html=1;labelBackgroundColor=default;fontSize=14;arcSize=50;" parent="1" vertex="1">
                    <mxGeometry x="365" y="40" width="120" height="40" as="geometry"/>
                </mxCell>
                <mxCell id="3" value="End" style="rounded=1;whiteSpace=wrap;html=1;labelBackgroundColor=default;fontSize=14;arcSize=50;" parent="1" vertex="1">
                    <mxGeometry x="365" y="540" width="120" height="40" as="geometry"/>
                </mxCell>
                <mxCell id="7" style="edgeStyle=none;html=1;exitX=0.5;exitY=1;exitDx=0;exitDy=0;entryX=0.5;entryY=0;entryDx=0;entryDy=0;fontSize=14;" parent="1" source="4" target="5" edge="1">
                    <mxGeometry relative="1" as="geometry"/>
                </mxCell>
                <mxCell id="4" value="Tc = 0&lt;br&gt;Tf = o" style="rounded=0;whiteSpace=wrap;html=1;labelBackgroundColor=default;fontSize=14;" parent="1" vertex="1">
                    <mxGeometry x="365" y="120" width="120" height="60" as="geometry"/>
                </mxCell>
                <mxCell id="9" style="edgeStyle=none;html=1;exitX=0.5;exitY=1;exitDx=0;exitDy=0;entryX=0.5;entryY=0;entryDx=0;entryDy=0;fontSize=14;" parent="1" source="5" target="8" edge="1">
                    <mxGeometry relative="1" as="geometry"/>
                </mxCell>
                <mxCell id="5" value="Введите температуру &lt;br&gt;в грудуса Фаренгейта&lt;br&gt;Tf = ввод пользователя" style="shape=parallelogram;perimeter=parallelogramPerimeter;whiteSpace=wrap;html=1;fixedSize=1;labelBackgroundColor=default;fontSize=14;size=30;" parent="1" vertex="1">
                    <mxGeometry x="295" y="220" width="260" height="80" as="geometry"/>
                </mxCell>
                <mxCell id="11" style="edgeStyle=none;html=1;exitX=0.5;exitY=1;exitDx=0;exitDy=0;entryX=0.5;entryY=0;entryDx=0;entryDy=0;fontSize=14;" parent="1" source="8" target="10" edge="1">
                    <mxGeometry relative="1" as="geometry"/>
                </mxCell>
                <mxCell id="8" value="Tc = ((Tf -32) * 5 ) / 9" style="rounded=0;whiteSpace=wrap;html=1;labelBackgroundColor=default;fontSize=14;" parent="1" vertex="1">
                    <mxGeometry x="330" y="340" width="190" height="60" as="geometry"/>
                </mxCell>
                <mxCell id="12" style="edgeStyle=none;html=1;exitX=0.5;exitY=1;exitDx=0;exitDy=0;entryX=0.5;entryY=0;entryDx=0;entryDy=0;fontSize=14;" parent="1" source="10" target="3" edge="1">
                    <mxGeometry relative="1" as="geometry"/>
                </mxCell>
                <mxCell id="10" value="Вывод Tc" style="shape=parallelogram;perimeter=parallelogramPerimeter;whiteSpace=wrap;html=1;fixedSize=1;labelBackgroundColor=default;fontSize=14;" parent="1" vertex="1">
                    <mxGeometry x="365" y="440" width="120" height="60" as="geometry"/>
                </mxCell>
            </root>
        </mxGraphModel>
    </diagram>
</mxfile>